<mxfile host="65bd71144e">
    <diagram id="76mIfS0ilEGvJfEHWf-7" name="example">
        <mxGraphModel dx="315" dy="685" grid="1" gridSize="10" guides="1" tooltips="1" connect="1" arrows="1" fold="1" page="0" pageScale="1" pageWidth="850" pageHeight="1100" math="0" shadow="0">
            <root>
                <mxCell id="0"/>
                <mxCell id="1" parent="0"/>
                <mxCell id="2" value="&lt;font style=&quot;color: rgb(77, 77, 77);&quot;&gt;&amp;nbsp;consumer-aligned&lt;/font&gt;" style="rounded=1;whiteSpace=wrap;html=1;fillColor=none;fontStyle=1;align=left;verticalAlign=top;arcSize=2;strokeColor=#FF3399;" parent="1" vertex="1">
                    <mxGeometry x="450" y="200" width="1510" height="160" as="geometry"/>
                </mxCell>
                <mxCell id="31" style="edgeStyle=orthogonalEdgeStyle;html=1;exitX=0.25;exitY=1;exitDx=0;exitDy=0;entryX=0.5;entryY=0;entryDx=0;entryDy=0;flowAnimation=1;endArrow=blockThin;endFill=1;strokeColor=#4D4D4D;" parent="1" source="6" target="20" edge="1">
                    <mxGeometry relative="1" as="geometry"/>
                </mxCell>
                <mxCell id="33" style="edgeStyle=orthogonalEdgeStyle;shape=connector;rounded=1;html=1;exitX=0.75;exitY=1;exitDx=0;exitDy=0;entryX=0.25;entryY=0;entryDx=0;entryDy=0;strokeColor=#4D4D4D;align=center;verticalAlign=middle;fontFamily=Helvetica;fontSize=11;fontColor=default;labelBackgroundColor=default;endArrow=blockThin;endFill=1;flowAnimation=1;" parent="1" source="6" target="24" edge="1">
                    <mxGeometry relative="1" as="geometry"/>
                </mxCell>
                <mxCell id="34" style="edgeStyle=orthogonalEdgeStyle;shape=connector;rounded=1;html=1;exitX=1;exitY=0.5;exitDx=0;exitDy=0;entryX=0.25;entryY=0;entryDx=0;entryDy=0;strokeColor=#4D4D4D;align=center;verticalAlign=middle;fontFamily=Helvetica;fontSize=11;fontColor=default;labelBackgroundColor=default;endArrow=blockThin;endFill=1;flowAnimation=1;" parent="1" source="6" target="15" edge="1">
                    <mxGeometry relative="1" as="geometry"/>
                </mxCell>
                <mxCell id="5" value="Marketing Domain" style="rounded=1;whiteSpace=wrap;html=1;verticalAlign=top;align=center;fontStyle=1;fillColor=none;imageHeight=24;arcSize=5;strokeColor=#3399FF;fontColor=#4D4D4D;" parent="1" vertex="1">
                    <mxGeometry x="791" y="220" width="190" height="120" as="geometry"/>
                </mxCell>
                <mxCell id="32" style="edgeStyle=orthogonalEdgeStyle;shape=connector;rounded=1;html=1;exitX=0.5;exitY=1;exitDx=0;exitDy=0;entryX=0.5;entryY=0;entryDx=0;entryDy=0;strokeColor=#4D4D4D;align=center;verticalAlign=middle;fontFamily=Helvetica;fontSize=11;fontColor=default;labelBackgroundColor=default;endArrow=blockThin;endFill=1;flowAnimation=1;" parent="1" source="6" target="22" edge="1">
                    <mxGeometry relative="1" as="geometry"/>
                </mxCell>
                <mxCell id="6" value="Funnel Analytics" style="rounded=1;whiteSpace=wrap;html=1;strokeColor=#9933FF;fontColor=#4D4D4D;" parent="1" vertex="1">
                    <mxGeometry x="826" y="260" width="120" height="60" as="geometry"/>
                </mxCell>
                <mxCell id="7" value="Management Support Domain" style="rounded=1;whiteSpace=wrap;html=1;verticalAlign=top;align=center;fontStyle=1;fillColor=none;imageHeight=24;arcSize=5;strokeColor=#3399FF;fontColor=#4D4D4D;" parent="1" vertex="1">
                    <mxGeometry x="1500" y="220" width="200" height="120" as="geometry"/>
                </mxCell>
                <mxCell id="35" style="edgeStyle=orthogonalEdgeStyle;shape=connector;rounded=1;html=1;exitX=0.5;exitY=1;exitDx=0;exitDy=0;entryX=0.75;entryY=0;entryDx=0;entryDy=0;strokeColor=#4D4D4D;align=center;verticalAlign=middle;fontFamily=Helvetica;fontSize=11;fontColor=default;labelBackgroundColor=default;endArrow=blockThin;endFill=1;flowAnimation=1;" parent="1" source="8" target="15" edge="1">
                    <mxGeometry relative="1" as="geometry"/>
                </mxCell>
                <mxCell id="8" value="KPIs &amp;amp; Dashboard" style="rounded=1;whiteSpace=wrap;html=1;strokeColor=#9933FF;fontColor=#4D4D4D;" parent="1" vertex="1">
                    <mxGeometry x="1540" y="260" width="120" height="60" as="geometry"/>
                </mxCell>
                <mxCell id="9" value="Controlling Support Domain" style="rounded=1;whiteSpace=wrap;html=1;verticalAlign=top;align=center;fontStyle=1;fillColor=none;imageHeight=24;arcSize=5;strokeColor=#3399FF;fontColor=#4D4D4D;" parent="1" vertex="1">
                    <mxGeometry x="1750" y="220" width="190" height="120" as="geometry"/>
                </mxCell>
                <mxCell id="36" style="edgeStyle=orthogonalEdgeStyle;shape=connector;rounded=1;html=1;exitX=0.5;exitY=1;exitDx=0;exitDy=0;entryX=1;entryY=0.25;entryDx=0;entryDy=0;strokeColor=#4D4D4D;align=center;verticalAlign=middle;fontFamily=Helvetica;fontSize=11;fontColor=default;labelBackgroundColor=default;endArrow=blockThin;endFill=1;flowAnimation=1;" parent="1" source="10" target="15" edge="1">
                    <mxGeometry relative="1" as="geometry"/>
                </mxCell>
                <mxCell id="37" style="edgeStyle=orthogonalEdgeStyle;shape=connector;rounded=1;html=1;exitX=0.75;exitY=1;exitDx=0;exitDy=0;entryX=0.5;entryY=0;entryDx=0;entryDy=0;strokeColor=#4D4D4D;align=center;verticalAlign=middle;fontFamily=Helvetica;fontSize=11;fontColor=default;labelBackgroundColor=default;endArrow=blockThin;endFill=1;flowAnimation=1;" parent="1" source="10" target="30" edge="1">
                    <mxGeometry relative="1" as="geometry"/>
                </mxCell>
                <mxCell id="10" value="Profitability Reporting" style="rounded=1;whiteSpace=wrap;html=1;strokeColor=#9933FF;fontColor=#4D4D4D;" parent="1" vertex="1">
                    <mxGeometry x="1777.5" y="260" width="135" height="60" as="geometry"/>
                </mxCell>
                <mxCell id="11" value="&amp;nbsp;aggregate" style="rounded=1;whiteSpace=wrap;html=1;fillColor=none;fontStyle=1;align=left;verticalAlign=top;arcSize=2;strokeColor=#FF3399;fontColor=#4D4D4D;" parent="1" vertex="1">
                    <mxGeometry x="450" y="450" width="1510" height="160" as="geometry"/>
                </mxCell>
                <mxCell id="12" value="Recommendations Domain" style="rounded=1;whiteSpace=wrap;html=1;verticalAlign=top;align=center;fontStyle=1;fillColor=none;imageHeight=24;arcSize=5;strokeColor=#3399FF;fontColor=#4D4D4D;" parent="1" vertex="1">
                    <mxGeometry x="1095" y="470" width="190" height="120" as="geometry"/>
                </mxCell>
                <mxCell id="43" style="edgeStyle=orthogonalEdgeStyle;shape=connector;rounded=1;html=1;exitX=0.5;exitY=1;exitDx=0;exitDy=0;entryX=0.75;entryY=0;entryDx=0;entryDy=0;strokeColor=#4D4D4D;align=center;verticalAlign=middle;fontFamily=Helvetica;fontSize=11;fontColor=default;labelBackgroundColor=default;endArrow=blockThin;endFill=1;flowAnimation=1;" parent="1" source="13" target="24" edge="1">
                    <mxGeometry relative="1" as="geometry"/>
                </mxCell>
                <mxCell id="44" style="edgeStyle=orthogonalEdgeStyle;shape=connector;rounded=1;html=1;exitX=1;exitY=0.5;exitDx=0;exitDy=0;entryX=0;entryY=0.5;entryDx=0;entryDy=0;strokeColor=#4D4D4D;align=center;verticalAlign=middle;fontFamily=Helvetica;fontSize=11;fontColor=default;labelBackgroundColor=default;endArrow=blockThin;endFill=1;flowAnimation=1;" parent="1" source="13" target="15" edge="1">
                    <mxGeometry relative="1" as="geometry"/>
                </mxCell>
                <mxCell id="13" value="ML Model" style="rounded=1;whiteSpace=wrap;html=1;strokeColor=#9933FF;fontColor=#4D4D4D;" parent="1" vertex="1">
                    <mxGeometry x="1130" y="510" width="120" height="60" as="geometry"/>
                </mxCell>
                <mxCell id="14" value="CRM Domain" style="rounded=1;whiteSpace=wrap;html=1;verticalAlign=top;align=center;fontStyle=1;fillColor=none;imageHeight=24;arcSize=5;strokeColor=#3399FF;fontColor=#4D4D4D;" parent="1" vertex="1">
                    <mxGeometry x="1347" y="470" width="200" height="120" as="geometry"/>
                </mxCell>
                <mxCell id="38" style="edgeStyle=orthogonalEdgeStyle;shape=connector;rounded=1;html=1;exitX=0.75;exitY=1;exitDx=0;exitDy=0;entryX=0.25;entryY=0;entryDx=0;entryDy=0;strokeColor=#4D4D4D;align=center;verticalAlign=middle;fontFamily=Helvetica;fontSize=11;fontColor=default;labelBackgroundColor=default;endArrow=blockThin;endFill=1;flowAnimation=1;" parent="1" source="15" target="30" edge="1">
                    <mxGeometry relative="1" as="geometry"/>
                </mxCell>
                <mxCell id="39" style="edgeStyle=orthogonalEdgeStyle;shape=connector;rounded=1;html=1;exitX=0.5;exitY=1;exitDx=0;exitDy=0;entryX=0.25;entryY=0;entryDx=0;entryDy=0;strokeColor=#4D4D4D;align=center;verticalAlign=middle;fontFamily=Helvetica;fontSize=11;fontColor=default;labelBackgroundColor=default;endArrow=blockThin;endFill=1;flowAnimation=1;" parent="1" source="15" target="28" edge="1">
                    <mxGeometry relative="1" as="geometry"/>
                </mxCell>
                <mxCell id="40" style="edgeStyle=orthogonalEdgeStyle;shape=connector;rounded=1;html=1;exitX=0.25;exitY=1;exitDx=0;exitDy=0;entryX=0.5;entryY=0;entryDx=0;entryDy=0;strokeColor=#4D4D4D;align=center;verticalAlign=middle;fontFamily=Helvetica;fontSize=11;fontColor=default;labelBackgroundColor=default;endArrow=blockThin;endFill=1;flowAnimation=1;" parent="1" source="15" target="25" edge="1">
                    <mxGeometry relative="1" as="geometry"/>
                </mxCell>
                <mxCell id="15" value="360 Customer" style="rounded=1;whiteSpace=wrap;html=1;strokeColor=#9933FF;fontColor=#4D4D4D;" parent="1" vertex="1">
                    <mxGeometry x="1387" y="510" width="120" height="60" as="geometry"/>
                </mxCell>
                <mxCell id="18" value="&amp;nbsp;&lt;span style=&quot;text-align: center;&quot;&gt;source-aligned&lt;/span&gt;" style="rounded=1;whiteSpace=wrap;html=1;fillColor=none;fontStyle=1;align=left;verticalAlign=top;arcSize=2;strokeColor=#FF3399;fontColor=#4D4D4D;" parent="1" vertex="1">
                    <mxGeometry x="450" y="700" width="1510" height="160" as="geometry"/>
                </mxCell>
                <mxCell id="19" value="Product Search Domain" style="rounded=1;whiteSpace=wrap;html=1;verticalAlign=top;align=center;fontStyle=1;fillColor=none;imageHeight=24;arcSize=5;strokeColor=#3399FF;fontColor=#4D4D4D;" parent="1" vertex="1">
                    <mxGeometry x="556" y="720" width="190" height="120" as="geometry"/>
                </mxCell>
                <mxCell id="20" value="Search Queries" style="rounded=1;whiteSpace=wrap;html=1;strokeColor=#9933FF;fontColor=#4D4D4D;" parent="1" vertex="1">
                    <mxGeometry x="591" y="760" width="120" height="60" as="geometry"/>
                </mxCell>
                <mxCell id="21" value="Article Details Domain" style="rounded=1;whiteSpace=wrap;html=1;verticalAlign=top;align=center;fontStyle=1;fillColor=none;imageHeight=24;arcSize=5;strokeColor=#3399FF;fontColor=#4D4D4D;" parent="1" vertex="1">
                    <mxGeometry x="786" y="720" width="200" height="120" as="geometry"/>
                </mxCell>
                <mxCell id="22" value="Article" style="rounded=1;whiteSpace=wrap;html=1;strokeColor=#9933FF;fontColor=#4D4D4D;" parent="1" vertex="1">
                    <mxGeometry x="826" y="760" width="120" height="60" as="geometry"/>
                </mxCell>
                <mxCell id="23" value="Checkout Domain" style="rounded=1;whiteSpace=wrap;html=1;verticalAlign=top;align=center;fontStyle=1;fillColor=none;imageHeight=24;arcSize=5;strokeColor=#3399FF;fontColor=#4D4D4D;" parent="1" vertex="1">
                    <mxGeometry x="1012" y="720" width="340" height="120" as="geometry"/>
                </mxCell>
                <mxCell id="47" style="edgeStyle=orthogonalEdgeStyle;shape=connector;rounded=1;html=1;exitX=0;exitY=0.5;exitDx=0;exitDy=0;entryX=1;entryY=0.5;entryDx=0;entryDy=0;strokeColor=#4D4D4D;align=center;verticalAlign=middle;fontFamily=Helvetica;fontSize=11;fontColor=default;labelBackgroundColor=default;endArrow=blockThin;endFill=1;flowAnimation=1;" parent="1" source="24" target="22" edge="1">
                    <mxGeometry relative="1" as="geometry"/>
                </mxCell>
                <mxCell id="24" value="Order" style="rounded=1;whiteSpace=wrap;html=1;strokeColor=#9933FF;fontColor=#4D4D4D;" parent="1" vertex="1">
                    <mxGeometry x="1052" y="760" width="120" height="60" as="geometry"/>
                </mxCell>
                <mxCell id="25" value="Customer" style="rounded=1;whiteSpace=wrap;html=1;strokeColor=#9933FF;fontColor=#4D4D4D;" parent="1" vertex="1">
                    <mxGeometry x="1192" y="760" width="120" height="60" as="geometry"/>
                </mxCell>
                <mxCell id="27" value="Fulfillment Domain" style="rounded=1;whiteSpace=wrap;html=1;verticalAlign=top;align=center;fontStyle=1;fillColor=none;imageHeight=24;arcSize=5;strokeColor=#3399FF;fontColor=#4D4D4D;" parent="1" vertex="1">
                    <mxGeometry x="1377" y="720" width="200" height="120" as="geometry"/>
                </mxCell>
                <mxCell id="46" style="edgeStyle=orthogonalEdgeStyle;shape=connector;rounded=1;html=1;exitX=0.5;exitY=1;exitDx=0;exitDy=0;entryX=0.5;entryY=1;entryDx=0;entryDy=0;strokeColor=#4D4D4D;align=center;verticalAlign=middle;fontFamily=Helvetica;fontSize=11;fontColor=default;labelBackgroundColor=default;endArrow=blockThin;endFill=1;flowAnimation=1;" parent="1" source="28" target="24" edge="1">
                    <mxGeometry relative="1" as="geometry"/>
                </mxCell>
                <mxCell id="28" value="Shipment" style="rounded=1;whiteSpace=wrap;html=1;strokeColor=#9933FF;fontColor=#4D4D4D;" parent="1" vertex="1">
                    <mxGeometry x="1417" y="760" width="120" height="60" as="geometry"/>
                </mxCell>
                <mxCell id="29" value="Payment Domain" style="rounded=1;whiteSpace=wrap;html=1;verticalAlign=top;align=center;fontStyle=1;fillColor=none;imageHeight=24;arcSize=5;strokeColor=#3399FF;fontColor=#4D4D4D;" parent="1" vertex="1">
                    <mxGeometry x="1680" y="720" width="200" height="120" as="geometry"/>
                </mxCell>
                <mxCell id="45" style="edgeStyle=orthogonalEdgeStyle;shape=connector;rounded=1;html=1;exitX=0;exitY=0.5;exitDx=0;exitDy=0;entryX=1;entryY=0.5;entryDx=0;entryDy=0;strokeColor=#4D4D4D;align=center;verticalAlign=middle;fontFamily=Helvetica;fontSize=11;fontColor=default;labelBackgroundColor=default;endArrow=blockThin;endFill=1;flowAnimation=1;" parent="1" source="30" target="28" edge="1">
                    <mxGeometry relative="1" as="geometry"/>
                </mxCell>
                <mxCell id="30" value="Invoce" style="rounded=1;whiteSpace=wrap;html=1;strokeColor=#9933FF;fontColor=#4D4D4D;" parent="1" vertex="1">
                    <mxGeometry x="1720" y="760" width="120" height="60" as="geometry"/>
                </mxCell>
            </root>
        </mxGraphModel>
    </diagram>
    <diagram id="pGt-QZwCpZAvNJuNKqkO" name="fine-grained-fully-federated-mesh">
        <mxGraphModel dx="367" dy="351" grid="1" gridSize="10" guides="1" tooltips="1" connect="1" arrows="1" fold="1" page="0" pageScale="1" pageWidth="850" pageHeight="1100" math="0" shadow="0">
            <root>
                <mxCell id="0"/>
                <mxCell id="1" parent="0"/>
                <mxCell id="FVpwOhdIhMj2a-cemYNb-1" value="Domain" style="rounded=1;whiteSpace=wrap;html=1;fontColor=#4D4D4D;strokeColor=#4D4D4D;" vertex="1" parent="1">
                    <mxGeometry x="120" y="235" width="60" height="30" as="geometry"/>
                </mxCell>
                <mxCell id="FVpwOhdIhMj2a-cemYNb-2" value="Domain" style="rounded=1;whiteSpace=wrap;html=1;fontColor=#4D4D4D;strokeColor=#4D4D4D;" vertex="1" parent="1">
                    <mxGeometry x="120" y="300" width="60" height="30" as="geometry"/>
                </mxCell>
                <mxCell id="FVpwOhdIhMj2a-cemYNb-9" style="html=1;exitX=0.5;exitY=1;exitDx=0;exitDy=0;entryX=1;entryY=0.5;entryDx=0;entryDy=0;endArrow=none;endFill=0;flowAnimation=1;strokeColor=#4D4D4D;" edge="1" parent="1" source="FVpwOhdIhMj2a-cemYNb-3" target="FVpwOhdIhMj2a-cemYNb-1">
                    <mxGeometry relative="1" as="geometry"/>
                </mxCell>
                <mxCell id="FVpwOhdIhMj2a-cemYNb-10" style="shape=connector;rounded=1;html=1;exitX=0.5;exitY=1;exitDx=0;exitDy=0;entryX=0.5;entryY=0;entryDx=0;entryDy=0;strokeColor=#4D4D4D;align=center;verticalAlign=middle;fontFamily=Helvetica;fontSize=11;fontColor=default;labelBackgroundColor=default;endArrow=none;endFill=0;flowAnimation=1;" edge="1" parent="1" source="FVpwOhdIhMj2a-cemYNb-3" target="FVpwOhdIhMj2a-cemYNb-8">
                    <mxGeometry relative="1" as="geometry"/>
                </mxCell>
                <mxCell id="FVpwOhdIhMj2a-cemYNb-11" style="shape=connector;rounded=1;html=1;exitX=0.5;exitY=1;exitDx=0;exitDy=0;entryX=0.5;entryY=0;entryDx=0;entryDy=0;strokeColor=#4D4D4D;align=center;verticalAlign=middle;fontFamily=Helvetica;fontSize=11;fontColor=default;labelBackgroundColor=default;endArrow=none;endFill=0;flowAnimation=1;" edge="1" parent="1" source="FVpwOhdIhMj2a-cemYNb-3" target="FVpwOhdIhMj2a-cemYNb-7">
                    <mxGeometry relative="1" as="geometry"/>
                </mxCell>
                <mxCell id="FVpwOhdIhMj2a-cemYNb-13" style="edgeStyle=none;shape=connector;rounded=1;html=1;exitX=0.5;exitY=1;exitDx=0;exitDy=0;entryX=0;entryY=0.5;entryDx=0;entryDy=0;strokeColor=#4D4D4D;align=center;verticalAlign=middle;fontFamily=Helvetica;fontSize=11;fontColor=default;labelBackgroundColor=default;endArrow=none;endFill=0;flowAnimation=1;" edge="1" parent="1" source="FVpwOhdIhMj2a-cemYNb-3" target="FVpwOhdIhMj2a-cemYNb-5">
                    <mxGeometry relative="1" as="geometry"/>
                </mxCell>
                <mxCell id="FVpwOhdIhMj2a-cemYNb-34" style="edgeStyle=none;shape=connector;rounded=1;html=1;exitX=0.5;exitY=1;exitDx=0;exitDy=0;entryX=0;entryY=0.5;entryDx=0;entryDy=0;strokeColor=#4D4D4D;align=center;verticalAlign=middle;fontFamily=Helvetica;fontSize=11;fontColor=default;labelBackgroundColor=default;endArrow=none;endFill=0;flowAnimation=1;" edge="1" parent="1" source="FVpwOhdIhMj2a-cemYNb-3" target="FVpwOhdIhMj2a-cemYNb-6">
                    <mxGeometry relative="1" as="geometry"/>
                </mxCell>
                <mxCell id="FVpwOhdIhMj2a-cemYNb-3" value="Domain" style="rounded=1;whiteSpace=wrap;html=1;fontColor=#4D4D4D;strokeColor=#4D4D4D;" vertex="1" parent="1">
                    <mxGeometry x="220" y="160" width="60" height="30" as="geometry"/>
                </mxCell>
                <mxCell id="FVpwOhdIhMj2a-cemYNb-15" style="edgeStyle=none;shape=connector;rounded=1;html=1;exitX=0.5;exitY=1;exitDx=0;exitDy=0;entryX=1;entryY=0.5;entryDx=0;entryDy=0;strokeColor=#4D4D4D;align=center;verticalAlign=middle;fontFamily=Helvetica;fontSize=11;fontColor=default;labelBackgroundColor=default;endArrow=none;endFill=0;flowAnimation=1;" edge="1" parent="1" source="FVpwOhdIhMj2a-cemYNb-4" target="FVpwOhdIhMj2a-cemYNb-1">
                    <mxGeometry relative="1" as="geometry"/>
                </mxCell>
                <mxCell id="FVpwOhdIhMj2a-cemYNb-16" style="edgeStyle=none;shape=connector;rounded=1;html=1;exitX=0.5;exitY=1;exitDx=0;exitDy=0;entryX=1;entryY=0.5;entryDx=0;entryDy=0;strokeColor=#4D4D4D;align=center;verticalAlign=middle;fontFamily=Helvetica;fontSize=11;fontColor=default;labelBackgroundColor=default;endArrow=none;endFill=0;flowAnimation=1;" edge="1" parent="1" source="FVpwOhdIhMj2a-cemYNb-4" target="FVpwOhdIhMj2a-cemYNb-2">
                    <mxGeometry relative="1" as="geometry"/>
                </mxCell>
                <mxCell id="FVpwOhdIhMj2a-cemYNb-17" style="edgeStyle=none;shape=connector;rounded=1;html=1;exitX=0.5;exitY=1;exitDx=0;exitDy=0;entryX=0.5;entryY=0;entryDx=0;entryDy=0;strokeColor=#4D4D4D;align=center;verticalAlign=middle;fontFamily=Helvetica;fontSize=11;fontColor=default;labelBackgroundColor=default;endArrow=none;endFill=0;flowAnimation=1;" edge="1" parent="1" source="FVpwOhdIhMj2a-cemYNb-4" target="FVpwOhdIhMj2a-cemYNb-8">
                    <mxGeometry relative="1" as="geometry"/>
                </mxCell>
                <mxCell id="FVpwOhdIhMj2a-cemYNb-18" style="edgeStyle=none;shape=connector;rounded=1;html=1;exitX=0.5;exitY=1;exitDx=0;exitDy=0;entryX=0.5;entryY=0;entryDx=0;entryDy=0;strokeColor=#4D4D4D;align=center;verticalAlign=middle;fontFamily=Helvetica;fontSize=11;fontColor=default;labelBackgroundColor=default;endArrow=none;endFill=0;flowAnimation=1;" edge="1" parent="1" source="FVpwOhdIhMj2a-cemYNb-4" target="FVpwOhdIhMj2a-cemYNb-7">
                    <mxGeometry relative="1" as="geometry"/>
                </mxCell>
                <mxCell id="FVpwOhdIhMj2a-cemYNb-19" style="edgeStyle=none;shape=connector;rounded=1;html=1;exitX=0.5;exitY=1;exitDx=0;exitDy=0;entryX=0;entryY=0.5;entryDx=0;entryDy=0;strokeColor=#4D4D4D;align=center;verticalAlign=middle;fontFamily=Helvetica;fontSize=11;fontColor=default;labelBackgroundColor=default;endArrow=none;endFill=0;flowAnimation=1;" edge="1" parent="1" source="FVpwOhdIhMj2a-cemYNb-4" target="FVpwOhdIhMj2a-cemYNb-5">
                    <mxGeometry relative="1" as="geometry"/>
                </mxCell>
                <mxCell id="FVpwOhdIhMj2a-cemYNb-4" value="Domain" style="rounded=1;whiteSpace=wrap;html=1;fontColor=#4D4D4D;strokeColor=#4D4D4D;" vertex="1" parent="1">
                    <mxGeometry x="320" y="160" width="60" height="30" as="geometry"/>
                </mxCell>
                <mxCell id="FVpwOhdIhMj2a-cemYNb-22" style="edgeStyle=none;shape=connector;rounded=1;html=1;exitX=0;exitY=0.5;exitDx=0;exitDy=0;entryX=1;entryY=0.5;entryDx=0;entryDy=0;strokeColor=#4D4D4D;align=center;verticalAlign=middle;fontFamily=Helvetica;fontSize=11;fontColor=default;labelBackgroundColor=default;endArrow=none;endFill=0;flowAnimation=1;" edge="1" parent="1" source="FVpwOhdIhMj2a-cemYNb-5" target="FVpwOhdIhMj2a-cemYNb-1">
                    <mxGeometry relative="1" as="geometry"/>
                </mxCell>
                <mxCell id="FVpwOhdIhMj2a-cemYNb-23" style="edgeStyle=none;shape=connector;rounded=1;html=1;exitX=0;exitY=0.5;exitDx=0;exitDy=0;entryX=1;entryY=0.5;entryDx=0;entryDy=0;strokeColor=#4D4D4D;align=center;verticalAlign=middle;fontFamily=Helvetica;fontSize=11;fontColor=default;labelBackgroundColor=default;endArrow=none;endFill=0;flowAnimation=1;" edge="1" parent="1" source="FVpwOhdIhMj2a-cemYNb-5" target="FVpwOhdIhMj2a-cemYNb-2">
                    <mxGeometry relative="1" as="geometry"/>
                </mxCell>
                <mxCell id="FVpwOhdIhMj2a-cemYNb-24" style="edgeStyle=none;shape=connector;rounded=1;html=1;exitX=0;exitY=0.5;exitDx=0;exitDy=0;entryX=0.5;entryY=0;entryDx=0;entryDy=0;strokeColor=#4D4D4D;align=center;verticalAlign=middle;fontFamily=Helvetica;fontSize=11;fontColor=default;labelBackgroundColor=default;endArrow=none;endFill=0;flowAnimation=1;" edge="1" parent="1" source="FVpwOhdIhMj2a-cemYNb-5" target="FVpwOhdIhMj2a-cemYNb-8">
                    <mxGeometry relative="1" as="geometry"/>
                </mxCell>
                <mxCell id="FVpwOhdIhMj2a-cemYNb-5" value="Domain" style="rounded=1;whiteSpace=wrap;html=1;fontColor=#4D4D4D;strokeColor=#4D4D4D;" vertex="1" parent="1">
                    <mxGeometry x="430" y="235" width="60" height="30" as="geometry"/>
                </mxCell>
                <mxCell id="FVpwOhdIhMj2a-cemYNb-26" style="edgeStyle=none;shape=connector;rounded=1;html=1;exitX=0;exitY=0.5;exitDx=0;exitDy=0;entryX=0.5;entryY=0;entryDx=0;entryDy=0;strokeColor=#4D4D4D;align=center;verticalAlign=middle;fontFamily=Helvetica;fontSize=11;fontColor=default;labelBackgroundColor=default;endArrow=none;endFill=0;flowAnimation=1;" edge="1" parent="1" source="FVpwOhdIhMj2a-cemYNb-6" target="FVpwOhdIhMj2a-cemYNb-8">
                    <mxGeometry relative="1" as="geometry"/>
                </mxCell>
                <mxCell id="FVpwOhdIhMj2a-cemYNb-27" style="edgeStyle=none;shape=connector;rounded=1;html=1;exitX=0;exitY=0.5;exitDx=0;exitDy=0;entryX=1;entryY=0.5;entryDx=0;entryDy=0;strokeColor=#4D4D4D;align=center;verticalAlign=middle;fontFamily=Helvetica;fontSize=11;fontColor=default;labelBackgroundColor=default;endArrow=none;endFill=0;flowAnimation=1;" edge="1" parent="1" source="FVpwOhdIhMj2a-cemYNb-6" target="FVpwOhdIhMj2a-cemYNb-2">
                    <mxGeometry relative="1" as="geometry"/>
                </mxCell>
                <mxCell id="FVpwOhdIhMj2a-cemYNb-28" style="edgeStyle=none;shape=connector;rounded=1;html=1;exitX=0;exitY=0.5;exitDx=0;exitDy=0;entryX=1;entryY=0.5;entryDx=0;entryDy=0;strokeColor=#4D4D4D;align=center;verticalAlign=middle;fontFamily=Helvetica;fontSize=11;fontColor=default;labelBackgroundColor=default;endArrow=none;endFill=0;flowAnimation=1;" edge="1" parent="1" source="FVpwOhdIhMj2a-cemYNb-6" target="FVpwOhdIhMj2a-cemYNb-1">
                    <mxGeometry relative="1" as="geometry"/>
                </mxCell>
                <mxCell id="FVpwOhdIhMj2a-cemYNb-6" value="Domain" style="rounded=1;whiteSpace=wrap;html=1;fontColor=#4D4D4D;strokeColor=#4D4D4D;" vertex="1" parent="1">
                    <mxGeometry x="430" y="300" width="60" height="30" as="geometry"/>
                </mxCell>
                <mxCell id="FVpwOhdIhMj2a-cemYNb-30" style="edgeStyle=none;shape=connector;rounded=1;html=1;exitX=0.5;exitY=0;exitDx=0;exitDy=0;entryX=1;entryY=0.5;entryDx=0;entryDy=0;strokeColor=#4D4D4D;align=center;verticalAlign=middle;fontFamily=Helvetica;fontSize=11;fontColor=default;labelBackgroundColor=default;endArrow=none;endFill=0;flowAnimation=1;" edge="1" parent="1" source="FVpwOhdIhMj2a-cemYNb-7" target="FVpwOhdIhMj2a-cemYNb-2">
                    <mxGeometry relative="1" as="geometry"/>
                </mxCell>
                <mxCell id="FVpwOhdIhMj2a-cemYNb-31" style="edgeStyle=none;shape=connector;rounded=1;html=1;exitX=0.5;exitY=0;exitDx=0;exitDy=0;entryX=1;entryY=0.5;entryDx=0;entryDy=0;strokeColor=#4D4D4D;align=center;verticalAlign=middle;fontFamily=Helvetica;fontSize=11;fontColor=default;labelBackgroundColor=default;endArrow=none;endFill=0;flowAnimation=1;" edge="1" parent="1" source="FVpwOhdIhMj2a-cemYNb-7" target="FVpwOhdIhMj2a-cemYNb-1">
                    <mxGeometry relative="1" as="geometry"/>
                </mxCell>
                <mxCell id="FVpwOhdIhMj2a-cemYNb-7" value="Domain" style="rounded=1;whiteSpace=wrap;html=1;fontColor=#4D4D4D;strokeColor=#4D4D4D;" vertex="1" parent="1">
                    <mxGeometry x="320" y="380" width="60" height="30" as="geometry"/>
                </mxCell>
                <mxCell id="FVpwOhdIhMj2a-cemYNb-32" style="edgeStyle=none;shape=connector;rounded=1;html=1;exitX=0.5;exitY=0;exitDx=0;exitDy=0;entryX=1;entryY=0.5;entryDx=0;entryDy=0;strokeColor=#4D4D4D;align=center;verticalAlign=middle;fontFamily=Helvetica;fontSize=11;fontColor=default;labelBackgroundColor=default;endArrow=none;endFill=0;flowAnimation=1;" edge="1" parent="1" source="FVpwOhdIhMj2a-cemYNb-8" target="FVpwOhdIhMj2a-cemYNb-2">
                    <mxGeometry relative="1" as="geometry"/>
                </mxCell>
                <mxCell id="FVpwOhdIhMj2a-cemYNb-8" value="Domain" style="rounded=1;whiteSpace=wrap;html=1;fontColor=#4D4D4D;strokeColor=#4D4D4D;" vertex="1" parent="1">
                    <mxGeometry x="220" y="380" width="60" height="30" as="geometry"/>
                </mxCell>
                <mxCell id="FVpwOhdIhMj2a-cemYNb-25" style="edgeStyle=none;shape=connector;rounded=1;html=1;exitX=0;exitY=0.5;exitDx=0;exitDy=0;entryX=0.5;entryY=0;entryDx=0;entryDy=0;strokeColor=#4D4D4D;align=center;verticalAlign=middle;fontFamily=Helvetica;fontSize=11;fontColor=default;labelBackgroundColor=default;endArrow=none;endFill=0;flowAnimation=1;" edge="1" parent="1" source="FVpwOhdIhMj2a-cemYNb-6" target="FVpwOhdIhMj2a-cemYNb-7">
                    <mxGeometry relative="1" as="geometry"/>
                </mxCell>
            </root>
        </mxGraphModel>
    </diagram>
    <diagram id="UeGNX_TaEfdEEkP_olKN" name="fine-grained-fully-and-fully-governed-mesh">
        <mxGraphModel dx="530" dy="507" grid="1" gridSize="10" guides="1" tooltips="1" connect="1" arrows="1" fold="1" page="0" pageScale="1" pageWidth="850" pageHeight="1100" math="0" shadow="0">
            <root>
                <mxCell id="0"/>
                <mxCell id="1" parent="0"/>
                <mxCell id="B_Kh2SbRzU01whUZ7EJC-1" value="Domain" style="rounded=1;whiteSpace=wrap;html=1;fontFamily=Helvetica;fontSize=11;fontColor=#4D4D4D;labelBackgroundColor=default;strokeColor=#4D4D4D;" vertex="1" parent="1">
                    <mxGeometry x="35" y="2" width="60" height="30" as="geometry"/>
                </mxCell>
                <mxCell id="B_Kh2SbRzU01whUZ7EJC-18" style="edgeStyle=none;shape=connector;rounded=1;html=1;exitX=1;exitY=0.13;exitDx=0;exitDy=0;exitPerimeter=0;entryX=0;entryY=0.5;entryDx=0;entryDy=0;strokeColor=#4D4D4D;align=center;verticalAlign=middle;fontFamily=Helvetica;fontSize=11;fontColor=#4D4D4D;labelBackgroundColor=default;endArrow=none;endFill=0;flowAnimation=1;" edge="1" parent="1" source="B_Kh2SbRzU01whUZ7EJC-2" target="B_Kh2SbRzU01whUZ7EJC-15">
                    <mxGeometry relative="1" as="geometry"/>
                </mxCell>
                <mxCell id="B_Kh2SbRzU01whUZ7EJC-19" style="edgeStyle=none;shape=connector;rounded=1;html=1;exitX=1;exitY=0.5;exitDx=0;exitDy=0;exitPerimeter=0;entryX=0;entryY=0.5;entryDx=0;entryDy=0;strokeColor=#4D4D4D;align=center;verticalAlign=middle;fontFamily=Helvetica;fontSize=11;fontColor=#4D4D4D;labelBackgroundColor=default;endArrow=none;endFill=0;flowAnimation=1;" edge="1" parent="1" source="B_Kh2SbRzU01whUZ7EJC-2" target="B_Kh2SbRzU01whUZ7EJC-16">
                    <mxGeometry relative="1" as="geometry"/>
                </mxCell>
                <mxCell id="B_Kh2SbRzU01whUZ7EJC-20" style="edgeStyle=none;shape=connector;rounded=1;html=1;exitX=1;exitY=0.88;exitDx=0;exitDy=0;exitPerimeter=0;entryX=0;entryY=0.5;entryDx=0;entryDy=0;strokeColor=#4D4D4D;align=center;verticalAlign=middle;fontFamily=Helvetica;fontSize=11;fontColor=#4D4D4D;labelBackgroundColor=default;endArrow=none;endFill=0;flowAnimation=1;" edge="1" parent="1" source="B_Kh2SbRzU01whUZ7EJC-2" target="B_Kh2SbRzU01whUZ7EJC-17">
                    <mxGeometry relative="1" as="geometry"/>
                </mxCell>
                <mxCell id="B_Kh2SbRzU01whUZ7EJC-2" value="Distribution Domain" style="rounded=1;whiteSpace=wrap;html=1;fontFamily=Helvetica;fontSize=11;fontColor=#4D4D4D;labelBackgroundColor=default;points=[[0,0.13,0,0,0],[0,0.25,0,0,0],[0,0.38,0,0,0],[0,0.5,0,0,0],[0,0.63,0,0,0],[0,0.75,0,0,0],[0,0.88,0,0,0],[0.13,0,0,0,0],[0.13,1,0,0,0],[0.25,0,0,0,0],[0.25,1,0,0,0],[0.38,0,0,0,0],[0.38,1,0,0,0],[0.5,0,0,0,0],[0.5,1,0,0,0],[0.63,0,0,0,0],[0.63,1,0,0,0],[0.75,0,0,0,0],[0.75,1,0,0,0],[0.88,0,0,0,0],[0.88,1,0,0,0],[1,0.13,0,0,0],[1,0.25,0,0,0],[1,0.38,0,0,0],[1,0.5,0,0,0],[1,0.63,0,0,0],[1,0.75,0,0,0],[1,0.88,0,0,0]];strokeColor=#4D4D4D;" vertex="1" parent="1">
                    <mxGeometry x="130" width="70" height="130" as="geometry"/>
                </mxCell>
                <mxCell id="B_Kh2SbRzU01whUZ7EJC-3" value="Domain" style="rounded=1;whiteSpace=wrap;html=1;fontFamily=Helvetica;fontSize=11;fontColor=#4D4D4D;labelBackgroundColor=default;strokeColor=#4D4D4D;" vertex="1" parent="1">
                    <mxGeometry x="35" y="50" width="60" height="30" as="geometry"/>
                </mxCell>
                <mxCell id="B_Kh2SbRzU01whUZ7EJC-4" value="Domain" style="rounded=1;whiteSpace=wrap;html=1;fontFamily=Helvetica;fontSize=11;fontColor=#4D4D4D;labelBackgroundColor=default;strokeColor=#4D4D4D;" vertex="1" parent="1">
                    <mxGeometry x="35" y="100" width="60" height="30" as="geometry"/>
                </mxCell>
                <mxCell id="B_Kh2SbRzU01whUZ7EJC-12" style="edgeStyle=none;shape=connector;rounded=1;html=1;exitX=1;exitY=0.5;exitDx=0;exitDy=0;entryX=0;entryY=0.13;entryDx=0;entryDy=0;entryPerimeter=0;strokeColor=#4D4D4D;align=center;verticalAlign=middle;fontFamily=Helvetica;fontSize=11;fontColor=#4D4D4D;labelBackgroundColor=default;endArrow=none;endFill=0;flowAnimation=1;" edge="1" parent="1" source="B_Kh2SbRzU01whUZ7EJC-1" target="B_Kh2SbRzU01whUZ7EJC-2">
                    <mxGeometry relative="1" as="geometry"/>
                </mxCell>
                <mxCell id="B_Kh2SbRzU01whUZ7EJC-13" style="edgeStyle=none;shape=connector;rounded=1;html=1;exitX=1;exitY=0.5;exitDx=0;exitDy=0;entryX=0;entryY=0.5;entryDx=0;entryDy=0;entryPerimeter=0;strokeColor=#4D4D4D;align=center;verticalAlign=middle;fontFamily=Helvetica;fontSize=11;fontColor=#4D4D4D;labelBackgroundColor=default;endArrow=none;endFill=0;flowAnimation=1;" edge="1" parent="1" source="B_Kh2SbRzU01whUZ7EJC-3" target="B_Kh2SbRzU01whUZ7EJC-2">
                    <mxGeometry relative="1" as="geometry"/>
                </mxCell>
                <mxCell id="B_Kh2SbRzU01whUZ7EJC-14" style="edgeStyle=none;shape=connector;rounded=1;html=1;exitX=1;exitY=0.5;exitDx=0;exitDy=0;entryX=0;entryY=0.88;entryDx=0;entryDy=0;entryPerimeter=0;strokeColor=#4D4D4D;align=center;verticalAlign=middle;fontFamily=Helvetica;fontSize=11;fontColor=#4D4D4D;labelBackgroundColor=default;endArrow=none;endFill=0;flowAnimation=1;" edge="1" parent="1" source="B_Kh2SbRzU01whUZ7EJC-4" target="B_Kh2SbRzU01whUZ7EJC-2">
                    <mxGeometry relative="1" as="geometry"/>
                </mxCell>
                <mxCell id="B_Kh2SbRzU01whUZ7EJC-15" value="Domain" style="rounded=1;whiteSpace=wrap;html=1;fontFamily=Helvetica;fontSize=11;fontColor=#4D4D4D;labelBackgroundColor=default;strokeColor=#4D4D4D;" vertex="1" parent="1">
                    <mxGeometry x="235" y="2" width="60" height="30" as="geometry"/>
                </mxCell>
                <mxCell id="B_Kh2SbRzU01whUZ7EJC-16" value="Domain" style="rounded=1;whiteSpace=wrap;html=1;fontFamily=Helvetica;fontSize=11;fontColor=#4D4D4D;labelBackgroundColor=default;strokeColor=#4D4D4D;" vertex="1" parent="1">
                    <mxGeometry x="235" y="50" width="60" height="30" as="geometry"/>
                </mxCell>
                <mxCell id="B_Kh2SbRzU01whUZ7EJC-17" value="Domain" style="rounded=1;whiteSpace=wrap;html=1;fontFamily=Helvetica;fontSize=11;fontColor=#4D4D4D;labelBackgroundColor=default;strokeColor=#4D4D4D;" vertex="1" parent="1">
                    <mxGeometry x="235" y="100" width="60" height="30" as="geometry"/>
                </mxCell>
            </root>
        </mxGraphModel>
    </diagram>
    <diagram id="S4OKJFgtzwNaPqRfE5j3" name="hybrid-federated-mesh">
        <mxGraphModel dx="996" dy="571" grid="1" gridSize="10" guides="1" tooltips="1" connect="1" arrows="1" fold="1" page="0" pageScale="1" pageWidth="850" pageHeight="1100" math="0" shadow="0">
            <root>
                <mxCell id="0"/>
                <mxCell id="1" parent="0"/>
                <mxCell id="Wy_QnI3A32qkhQtUqnNc-8" value="" style="rounded=1;whiteSpace=wrap;html=1;fontFamily=Helvetica;fontSize=11;fontColor=#4D4D4D;labelBackgroundColor=default;fillColor=none;strokeColor=#6666FF;arcSize=2;" vertex="1" parent="1">
                    <mxGeometry x="-100" y="60" width="240" height="270" as="geometry"/>
                </mxCell>
                <mxCell id="Wy_QnI3A32qkhQtUqnNc-1" value="Domain" style="rounded=1;whiteSpace=wrap;html=1;fontFamily=Helvetica;fontSize=11;fontColor=#4D4D4D;labelBackgroundColor=default;strokeColor=#4D4D4D;" vertex="1" parent="1">
                    <mxGeometry x="-88" y="94" width="60" height="30" as="geometry"/>
                </mxCell>
                <mxCell id="uFjTTRc1wq-Ghtkn0AiY-5" style="edgeStyle=none;shape=connector;rounded=1;html=1;exitX=1;exitY=0.5;exitDx=0;exitDy=0;exitPerimeter=0;entryX=0.5;entryY=1;entryDx=0;entryDy=0;strokeColor=#4D4D4D;align=center;verticalAlign=middle;fontFamily=Helvetica;fontSize=11;fontColor=#4D4D4D;labelBackgroundColor=default;endArrow=none;endFill=0;flowAnimation=1;" edge="1" parent="1" source="Wy_QnI3A32qkhQtUqnNc-2" target="uFjTTRc1wq-Ghtkn0AiY-1">
                    <mxGeometry relative="1" as="geometry"/>
                </mxCell>
                <mxCell id="uFjTTRc1wq-Ghtkn0AiY-6" style="edgeStyle=none;shape=connector;rounded=1;html=1;exitX=1;exitY=0.5;exitDx=0;exitDy=0;exitPerimeter=0;entryX=0;entryY=0.5;entryDx=0;entryDy=0;strokeColor=#4D4D4D;align=center;verticalAlign=middle;fontFamily=Helvetica;fontSize=11;fontColor=#4D4D4D;labelBackgroundColor=default;endArrow=none;endFill=0;flowAnimation=1;" edge="1" parent="1" source="Wy_QnI3A32qkhQtUqnNc-2" target="uFjTTRc1wq-Ghtkn0AiY-3">
                    <mxGeometry relative="1" as="geometry"/>
                </mxCell>
                <mxCell id="uFjTTRc1wq-Ghtkn0AiY-7" style="edgeStyle=none;shape=connector;rounded=1;html=1;exitX=1;exitY=0.5;exitDx=0;exitDy=0;exitPerimeter=0;entryX=0;entryY=0.5;entryDx=0;entryDy=0;strokeColor=#4D4D4D;align=center;verticalAlign=middle;fontFamily=Helvetica;fontSize=11;fontColor=#4D4D4D;labelBackgroundColor=default;endArrow=none;endFill=0;flowAnimation=1;" edge="1" parent="1" source="Wy_QnI3A32qkhQtUqnNc-2" target="uFjTTRc1wq-Ghtkn0AiY-4">
                    <mxGeometry relative="1" as="geometry"/>
                </mxCell>
                <mxCell id="Wy_QnI3A32qkhQtUqnNc-2" value="Source-aligned Distribution Domain" style="rounded=1;whiteSpace=wrap;html=1;fontFamily=Helvetica;fontSize=11;fontColor=#4D4D4D;labelBackgroundColor=default;points=[[0,0.13,0,0,0],[0,0.25,0,0,0],[0,0.38,0,0,0],[0,0.5,0,0,0],[0,0.63,0,0,0],[0,0.75,0,0,0],[0,0.88,0,0,0],[0.13,0,0,0,0],[0.13,1,0,0,0],[0.25,0,0,0,0],[0.25,1,0,0,0],[0.38,0,0,0,0],[0.38,1,0,0,0],[0.5,0,0,0,0],[0.5,1,0,0,0],[0.63,0,0,0,0],[0.63,1,0,0,0],[0.75,0,0,0,0],[0.75,1,0,0,0],[0.88,0,0,0,0],[0.88,1,0,0,0],[1,0.13,0,0,0],[1,0.25,0,0,0],[1,0.38,0,0,0],[1,0.5,0,0,0],[1,0.63,0,0,0],[1,0.75,0,0,0],[1,0.88,0,0,0]];strokeColor=#4D4D4D;" vertex="1" parent="1">
                    <mxGeometry x="10" y="80" width="110" height="225" as="geometry"/>
                </mxCell>
                <mxCell id="Wy_QnI3A32qkhQtUqnNc-3" style="edgeStyle=none;shape=connector;rounded=1;html=1;entryX=0;entryY=0.13;entryDx=0;entryDy=0;entryPerimeter=0;strokeColor=#4D4D4D;align=center;verticalAlign=middle;fontFamily=Helvetica;fontSize=11;fontColor=#4D4D4D;labelBackgroundColor=default;endArrow=none;endFill=0;flowAnimation=1;" edge="1" parent="1" source="Wy_QnI3A32qkhQtUqnNc-1" target="Wy_QnI3A32qkhQtUqnNc-2">
                    <mxGeometry relative="1" as="geometry"/>
                </mxCell>
                <mxCell id="Wy_QnI3A32qkhQtUqnNc-4" value="Domain" style="rounded=1;whiteSpace=wrap;html=1;fontFamily=Helvetica;fontSize=11;fontColor=#4D4D4D;labelBackgroundColor=default;strokeColor=#4D4D4D;" vertex="1" parent="1">
                    <mxGeometry x="-88" y="177.5" width="60" height="30" as="geometry"/>
                </mxCell>
                <mxCell id="Wy_QnI3A32qkhQtUqnNc-5" style="edgeStyle=none;shape=connector;rounded=1;html=1;entryX=0;entryY=0.5;entryDx=0;entryDy=0;entryPerimeter=0;strokeColor=#4D4D4D;align=center;verticalAlign=middle;fontFamily=Helvetica;fontSize=11;fontColor=#4D4D4D;labelBackgroundColor=default;endArrow=none;endFill=0;flowAnimation=1;" edge="1" parent="1" source="Wy_QnI3A32qkhQtUqnNc-4" target="Wy_QnI3A32qkhQtUqnNc-2">
                    <mxGeometry relative="1" as="geometry"/>
                </mxCell>
                <mxCell id="Wy_QnI3A32qkhQtUqnNc-6" value="Domain" style="rounded=1;whiteSpace=wrap;html=1;fontFamily=Helvetica;fontSize=11;fontColor=#4D4D4D;labelBackgroundColor=default;strokeColor=#4D4D4D;" vertex="1" parent="1">
                    <mxGeometry x="-88" y="262" width="60" height="30" as="geometry"/>
                </mxCell>
                <mxCell id="Wy_QnI3A32qkhQtUqnNc-7" style="edgeStyle=none;shape=connector;rounded=1;html=1;entryX=0;entryY=0.88;entryDx=0;entryDy=0;entryPerimeter=0;strokeColor=#4D4D4D;align=center;verticalAlign=middle;fontFamily=Helvetica;fontSize=11;fontColor=#4D4D4D;labelBackgroundColor=default;endArrow=none;endFill=0;flowAnimation=1;" edge="1" parent="1" source="Wy_QnI3A32qkhQtUqnNc-6" target="Wy_QnI3A32qkhQtUqnNc-2">
                    <mxGeometry relative="1" as="geometry"/>
                </mxCell>
                <mxCell id="uFjTTRc1wq-Ghtkn0AiY-9" style="edgeStyle=none;shape=connector;rounded=1;html=1;exitX=0.5;exitY=1;exitDx=0;exitDy=0;entryX=0.5;entryY=0;entryDx=0;entryDy=0;strokeColor=#4D4D4D;align=center;verticalAlign=middle;fontFamily=Helvetica;fontSize=11;fontColor=#4D4D4D;labelBackgroundColor=default;endArrow=none;endFill=0;flowAnimation=1;" edge="1" parent="1" source="uFjTTRc1wq-Ghtkn0AiY-1" target="uFjTTRc1wq-Ghtkn0AiY-2">
                    <mxGeometry relative="1" as="geometry"/>
                </mxCell>
                <mxCell id="uFjTTRc1wq-Ghtkn0AiY-10" style="edgeStyle=none;shape=connector;rounded=1;html=1;exitX=0.5;exitY=1;exitDx=0;exitDy=0;entryX=0;entryY=0.5;entryDx=0;entryDy=0;strokeColor=#4D4D4D;align=center;verticalAlign=middle;fontFamily=Helvetica;fontSize=11;fontColor=#4D4D4D;labelBackgroundColor=default;endArrow=none;endFill=0;flowAnimation=1;" edge="1" parent="1" source="uFjTTRc1wq-Ghtkn0AiY-1" target="uFjTTRc1wq-Ghtkn0AiY-4">
                    <mxGeometry relative="1" as="geometry"/>
                </mxCell>
                <mxCell id="uFjTTRc1wq-Ghtkn0AiY-13" style="edgeStyle=none;shape=connector;rounded=1;html=1;exitX=0.5;exitY=1;exitDx=0;exitDy=0;entryX=0;entryY=0.5;entryDx=0;entryDy=0;strokeColor=#4D4D4D;align=center;verticalAlign=middle;fontFamily=Helvetica;fontSize=11;fontColor=#4D4D4D;labelBackgroundColor=default;endArrow=none;endFill=0;flowAnimation=1;" edge="1" parent="1" source="uFjTTRc1wq-Ghtkn0AiY-1" target="uFjTTRc1wq-Ghtkn0AiY-3">
                    <mxGeometry relative="1" as="geometry"/>
                </mxCell>
                <mxCell id="uFjTTRc1wq-Ghtkn0AiY-1" value="Domain" style="rounded=1;whiteSpace=wrap;html=1;fontFamily=Helvetica;fontSize=11;fontColor=#4D4D4D;labelBackgroundColor=default;strokeColor=#4D4D4D;" vertex="1" parent="1">
                    <mxGeometry x="182" y="94" width="60" height="30" as="geometry"/>
                </mxCell>
                <mxCell id="uFjTTRc1wq-Ghtkn0AiY-11" style="edgeStyle=none;shape=connector;rounded=1;html=1;exitX=0.5;exitY=0;exitDx=0;exitDy=0;entryX=0;entryY=0.5;entryDx=0;entryDy=0;strokeColor=#4D4D4D;align=center;verticalAlign=middle;fontFamily=Helvetica;fontSize=11;fontColor=#4D4D4D;labelBackgroundColor=default;endArrow=none;endFill=0;flowAnimation=1;" edge="1" parent="1" source="uFjTTRc1wq-Ghtkn0AiY-2" target="uFjTTRc1wq-Ghtkn0AiY-3">
                    <mxGeometry relative="1" as="geometry"/>
                </mxCell>
                <mxCell id="uFjTTRc1wq-Ghtkn0AiY-12" style="edgeStyle=none;shape=connector;rounded=1;html=1;exitX=0.5;exitY=0;exitDx=0;exitDy=0;entryX=0;entryY=0.5;entryDx=0;entryDy=0;strokeColor=#4D4D4D;align=center;verticalAlign=middle;fontFamily=Helvetica;fontSize=11;fontColor=#4D4D4D;labelBackgroundColor=default;endArrow=none;endFill=0;flowAnimation=1;" edge="1" parent="1" source="uFjTTRc1wq-Ghtkn0AiY-2" target="uFjTTRc1wq-Ghtkn0AiY-4">
                    <mxGeometry relative="1" as="geometry"/>
                </mxCell>
                <mxCell id="uFjTTRc1wq-Ghtkn0AiY-2" value="Domain" style="rounded=1;whiteSpace=wrap;html=1;fontFamily=Helvetica;fontSize=11;fontColor=#4D4D4D;labelBackgroundColor=default;strokeColor=#4D4D4D;" vertex="1" parent="1">
                    <mxGeometry x="182" y="262" width="60" height="30" as="geometry"/>
                </mxCell>
                <mxCell id="uFjTTRc1wq-Ghtkn0AiY-3" value="Domain" style="rounded=1;whiteSpace=wrap;html=1;fontFamily=Helvetica;fontSize=11;fontColor=#4D4D4D;labelBackgroundColor=default;strokeColor=#4D4D4D;" vertex="1" parent="1">
                    <mxGeometry x="302" y="147.5" width="60" height="30" as="geometry"/>
                </mxCell>
                <mxCell id="uFjTTRc1wq-Ghtkn0AiY-4" value="Domain" style="rounded=1;whiteSpace=wrap;html=1;fontFamily=Helvetica;fontSize=11;fontColor=#4D4D4D;labelBackgroundColor=default;strokeColor=#4D4D4D;" vertex="1" parent="1">
                    <mxGeometry x="302" y="207.5" width="60" height="30" as="geometry"/>
                </mxCell>
                <mxCell id="uFjTTRc1wq-Ghtkn0AiY-8" style="edgeStyle=none;shape=connector;rounded=1;html=1;exitX=1;exitY=0.5;exitDx=0;exitDy=0;exitPerimeter=0;entryX=0.5;entryY=0;entryDx=0;entryDy=0;strokeColor=#4D4D4D;align=center;verticalAlign=middle;fontFamily=Helvetica;fontSize=11;fontColor=#4D4D4D;labelBackgroundColor=default;endArrow=none;endFill=0;flowAnimation=1;" edge="1" parent="1" source="Wy_QnI3A32qkhQtUqnNc-2" target="uFjTTRc1wq-Ghtkn0AiY-2">
                    <mxGeometry relative="1" as="geometry"/>
                </mxCell>
            </root>
        </mxGraphModel>
    </diagram>
    <diagram id="krZjK1FVuhXvrs-tHRix" name="value-chain-aligned-mesh">
        <mxGraphModel dx="786" dy="370" grid="1" gridSize="10" guides="1" tooltips="1" connect="1" arrows="1" fold="1" page="0" pageScale="1" pageWidth="850" pageHeight="1100" math="0" shadow="0">
            <root>
                <mxCell id="0"/>
                <mxCell id="1" parent="0"/>
                <mxCell id="rA2HgPyGTzqPNrqjC4cK-3" value="" style="rounded=1;whiteSpace=wrap;html=1;fontFamily=Helvetica;fontSize=11;fontColor=#4D4D4D;labelBackgroundColor=default;fillColor=none;strokeColor=#6666FF;arcSize=2;" vertex="1" parent="1">
                    <mxGeometry x="-150" y="345" width="320" height="60" as="geometry"/>
                </mxCell>
                <mxCell id="rA2HgPyGTzqPNrqjC4cK-2" value="" style="rounded=1;whiteSpace=wrap;html=1;fontFamily=Helvetica;fontSize=11;fontColor=#4D4D4D;labelBackgroundColor=default;fillColor=none;strokeColor=#6666FF;arcSize=2;" vertex="1" parent="1">
                    <mxGeometry x="-150" y="255" width="320" height="60" as="geometry"/>
                </mxCell>
                <mxCell id="rA2HgPyGTzqPNrqjC4cK-1" value="" style="rounded=1;whiteSpace=wrap;html=1;fontFamily=Helvetica;fontSize=11;fontColor=#4D4D4D;labelBackgroundColor=default;fillColor=none;strokeColor=#6666FF;arcSize=2;" vertex="1" parent="1">
                    <mxGeometry x="-150" y="162.5" width="320" height="60" as="geometry"/>
                </mxCell>
                <mxCell id="rA2HgPyGTzqPNrqjC4cK-4" style="edgeStyle=none;shape=connector;rounded=1;html=1;exitX=1;exitY=0.5;exitDx=0;exitDy=0;entryX=0;entryY=0.5;entryDx=0;entryDy=0;strokeColor=#4D4D4D;align=center;verticalAlign=middle;fontFamily=Helvetica;fontSize=11;fontColor=#4D4D4D;labelBackgroundColor=default;endArrow=none;endFill=0;flowAnimation=1;" edge="1" parent="1" source="OroOGc0J_Kp2Bao8SQwC-1" target="OroOGc0J_Kp2Bao8SQwC-2">
                    <mxGeometry relative="1" as="geometry"/>
                </mxCell>
                <mxCell id="OroOGc0J_Kp2Bao8SQwC-1" value="Domain" style="rounded=1;whiteSpace=wrap;html=1;fontFamily=Helvetica;fontSize=11;fontColor=#4D4D4D;labelBackgroundColor=default;strokeColor=#4D4D4D;" vertex="1" parent="1">
                    <mxGeometry x="-140" y="177.5" width="60" height="30" as="geometry"/>
                </mxCell>
                <mxCell id="rA2HgPyGTzqPNrqjC4cK-5" style="edgeStyle=none;shape=connector;rounded=1;html=1;exitX=1;exitY=0.5;exitDx=0;exitDy=0;entryX=0;entryY=0.5;entryDx=0;entryDy=0;strokeColor=#4D4D4D;align=center;verticalAlign=middle;fontFamily=Helvetica;fontSize=11;fontColor=#4D4D4D;labelBackgroundColor=default;endArrow=none;endFill=0;flowAnimation=1;" edge="1" parent="1" source="OroOGc0J_Kp2Bao8SQwC-2" target="OroOGc0J_Kp2Bao8SQwC-3">
                    <mxGeometry relative="1" as="geometry"/>
                </mxCell>
                <mxCell id="OroOGc0J_Kp2Bao8SQwC-2" value="Domain" style="rounded=1;whiteSpace=wrap;html=1;fontFamily=Helvetica;fontSize=11;fontColor=#4D4D4D;labelBackgroundColor=default;strokeColor=#4D4D4D;" vertex="1" parent="1">
                    <mxGeometry x="-20" y="177.5" width="60" height="30" as="geometry"/>
                </mxCell>
                <mxCell id="rA2HgPyGTzqPNrqjC4cK-6" style="edgeStyle=none;shape=connector;rounded=1;html=1;exitX=0.5;exitY=1;exitDx=0;exitDy=0;entryX=0.5;entryY=0;entryDx=0;entryDy=0;strokeColor=#4D4D4D;align=center;verticalAlign=middle;fontFamily=Helvetica;fontSize=11;fontColor=#4D4D4D;labelBackgroundColor=default;endArrow=none;endFill=0;flowAnimation=1;" edge="1" parent="1" source="OroOGc0J_Kp2Bao8SQwC-3" target="OroOGc0J_Kp2Bao8SQwC-5">
                    <mxGeometry relative="1" as="geometry"/>
                </mxCell>
                <mxCell id="rA2HgPyGTzqPNrqjC4cK-7" style="edgeStyle=none;shape=connector;rounded=1;html=1;exitX=0.5;exitY=1;exitDx=0;exitDy=0;entryX=0.5;entryY=0;entryDx=0;entryDy=0;strokeColor=#4D4D4D;align=center;verticalAlign=middle;fontFamily=Helvetica;fontSize=11;fontColor=#4D4D4D;labelBackgroundColor=default;endArrow=none;endFill=0;flowAnimation=1;" edge="1" parent="1" source="OroOGc0J_Kp2Bao8SQwC-3" target="OroOGc0J_Kp2Bao8SQwC-8">
                    <mxGeometry relative="1" as="geometry"/>
                </mxCell>
                <mxCell id="OroOGc0J_Kp2Bao8SQwC-3" value="Domain" style="rounded=1;whiteSpace=wrap;html=1;fontFamily=Helvetica;fontSize=11;fontColor=#4D4D4D;labelBackgroundColor=default;strokeColor=#4D4D4D;" vertex="1" parent="1">
                    <mxGeometry x="100" y="177.5" width="60" height="30" as="geometry"/>
                </mxCell>
                <mxCell id="rA2HgPyGTzqPNrqjC4cK-8" style="edgeStyle=none;shape=connector;rounded=1;html=1;exitX=0.5;exitY=1;exitDx=0;exitDy=0;entryX=0.5;entryY=0;entryDx=0;entryDy=0;strokeColor=#4D4D4D;align=center;verticalAlign=middle;fontFamily=Helvetica;fontSize=11;fontColor=#4D4D4D;labelBackgroundColor=default;endArrow=none;endFill=0;flowAnimation=1;" edge="1" parent="1" source="OroOGc0J_Kp2Bao8SQwC-4" target="OroOGc0J_Kp2Bao8SQwC-6">
                    <mxGeometry relative="1" as="geometry"/>
                </mxCell>
                <mxCell id="OroOGc0J_Kp2Bao8SQwC-4" value="Domain" style="rounded=1;whiteSpace=wrap;html=1;fontFamily=Helvetica;fontSize=11;fontColor=#4D4D4D;labelBackgroundColor=default;strokeColor=#4D4D4D;" vertex="1" parent="1">
                    <mxGeometry x="-140" y="270" width="60" height="30" as="geometry"/>
                </mxCell>
                <mxCell id="rA2HgPyGTzqPNrqjC4cK-9" style="edgeStyle=none;shape=connector;rounded=1;html=1;exitX=0.5;exitY=1;exitDx=0;exitDy=0;entryX=0.5;entryY=0;entryDx=0;entryDy=0;strokeColor=#4D4D4D;align=center;verticalAlign=middle;fontFamily=Helvetica;fontSize=11;fontColor=#4D4D4D;labelBackgroundColor=default;endArrow=none;endFill=0;flowAnimation=1;" edge="1" parent="1" source="OroOGc0J_Kp2Bao8SQwC-5" target="OroOGc0J_Kp2Bao8SQwC-7">
                    <mxGeometry relative="1" as="geometry"/>
                </mxCell>
                <mxCell id="OroOGc0J_Kp2Bao8SQwC-5" value="Domain" style="rounded=1;whiteSpace=wrap;html=1;fontFamily=Helvetica;fontSize=11;fontColor=#4D4D4D;labelBackgroundColor=default;strokeColor=#4D4D4D;" vertex="1" parent="1">
                    <mxGeometry x="-20" y="270" width="60" height="30" as="geometry"/>
                </mxCell>
                <mxCell id="rA2HgPyGTzqPNrqjC4cK-10" style="edgeStyle=none;shape=connector;rounded=1;html=1;exitX=1;exitY=0.5;exitDx=0;exitDy=0;entryX=0;entryY=0.5;entryDx=0;entryDy=0;strokeColor=#4D4D4D;align=center;verticalAlign=middle;fontFamily=Helvetica;fontSize=11;fontColor=#4D4D4D;labelBackgroundColor=default;endArrow=none;endFill=0;flowAnimation=1;" edge="1" parent="1" source="OroOGc0J_Kp2Bao8SQwC-6" target="OroOGc0J_Kp2Bao8SQwC-7">
                    <mxGeometry relative="1" as="geometry"/>
                </mxCell>
                <mxCell id="OroOGc0J_Kp2Bao8SQwC-6" value="Domain" style="rounded=1;whiteSpace=wrap;html=1;fontFamily=Helvetica;fontSize=11;fontColor=#4D4D4D;labelBackgroundColor=default;strokeColor=#4D4D4D;" vertex="1" parent="1">
                    <mxGeometry x="-140" y="360" width="60" height="30" as="geometry"/>
                </mxCell>
                <mxCell id="rA2HgPyGTzqPNrqjC4cK-11" style="edgeStyle=none;shape=connector;rounded=1;html=1;exitX=1;exitY=0.5;exitDx=0;exitDy=0;entryX=0;entryY=0.5;entryDx=0;entryDy=0;strokeColor=#4D4D4D;align=center;verticalAlign=middle;fontFamily=Helvetica;fontSize=11;fontColor=#4D4D4D;labelBackgroundColor=default;endArrow=none;endFill=0;flowAnimation=1;" edge="1" parent="1" source="OroOGc0J_Kp2Bao8SQwC-7" target="OroOGc0J_Kp2Bao8SQwC-8">
                    <mxGeometry relative="1" as="geometry"/>
                </mxCell>
                <mxCell id="OroOGc0J_Kp2Bao8SQwC-7" value="Domain" style="rounded=1;whiteSpace=wrap;html=1;fontFamily=Helvetica;fontSize=11;fontColor=#4D4D4D;labelBackgroundColor=default;strokeColor=#4D4D4D;" vertex="1" parent="1">
                    <mxGeometry x="-20" y="360" width="60" height="30" as="geometry"/>
                </mxCell>
                <mxCell id="OroOGc0J_Kp2Bao8SQwC-8" value="Domain" style="rounded=1;whiteSpace=wrap;html=1;fontFamily=Helvetica;fontSize=11;fontColor=#4D4D4D;labelBackgroundColor=default;strokeColor=#4D4D4D;" vertex="1" parent="1">
                    <mxGeometry x="100" y="360" width="60" height="30" as="geometry"/>
                </mxCell>
            </root>
        </mxGraphModel>
    </diagram>
    <diagram id="n0QcaNI2gykmOGkQxYdZ" name="coarse-grained-aligned-mesh">
        <mxGraphModel dx="833" dy="415" grid="1" gridSize="10" guides="1" tooltips="1" connect="1" arrows="1" fold="1" page="0" pageScale="1" pageWidth="850" pageHeight="1100" math="0" shadow="0">
            <root>
                <mxCell id="0"/>
                <mxCell id="1" parent="0"/>
                <mxCell id="XwKYCoxmVv9_oh3NsCj3-1" value="" style="rounded=1;whiteSpace=wrap;html=1;fontFamily=Helvetica;fontSize=11;fontColor=#4D4D4D;labelBackgroundColor=default;fillColor=none;strokeColor=#6666FF;arcSize=2;" vertex="1" parent="1">
                    <mxGeometry x="-150" y="140" width="80" height="130" as="geometry"/>
                </mxCell>
                <mxCell id="XwKYCoxmVv9_oh3NsCj3-18" style="edgeStyle=none;shape=connector;rounded=1;html=1;exitX=0.5;exitY=1;exitDx=0;exitDy=0;entryX=0.5;entryY=0;entryDx=0;entryDy=0;strokeColor=#4D4D4D;align=center;verticalAlign=middle;fontFamily=Helvetica;fontSize=11;fontColor=#4D4D4D;labelBackgroundColor=default;endArrow=none;endFill=0;flowAnimation=1;" edge="1" parent="1" source="XwKYCoxmVv9_oh3NsCj3-3" target="XwKYCoxmVv9_oh3NsCj3-5">
                    <mxGeometry relative="1" as="geometry"/>
                </mxCell>
                <mxCell id="XwKYCoxmVv9_oh3NsCj3-3" value="Domain" style="rounded=1;whiteSpace=wrap;html=1;fontFamily=Helvetica;fontSize=11;fontColor=#4D4D4D;labelBackgroundColor=default;strokeColor=#4D4D4D;" vertex="1" parent="1">
                    <mxGeometry x="-140" y="150" width="60" height="30" as="geometry"/>
                </mxCell>
                <mxCell id="XwKYCoxmVv9_oh3NsCj3-19" style="edgeStyle=none;shape=connector;rounded=1;html=1;exitX=1;exitY=0.5;exitDx=0;exitDy=0;entryX=0;entryY=0.5;entryDx=0;entryDy=0;strokeColor=#4D4D4D;align=center;verticalAlign=middle;fontFamily=Helvetica;fontSize=11;fontColor=#4D4D4D;labelBackgroundColor=default;endArrow=none;endFill=0;flowAnimation=1;" edge="1" parent="1" source="XwKYCoxmVv9_oh3NsCj3-5" target="XwKYCoxmVv9_oh3NsCj3-12">
                    <mxGeometry relative="1" as="geometry"/>
                </mxCell>
                <mxCell id="XwKYCoxmVv9_oh3NsCj3-20" style="edgeStyle=none;shape=connector;rounded=1;html=1;exitX=1;exitY=0.5;exitDx=0;exitDy=0;entryX=0;entryY=0.5;entryDx=0;entryDy=0;strokeColor=#4D4D4D;align=center;verticalAlign=middle;fontFamily=Helvetica;fontSize=11;fontColor=#4D4D4D;labelBackgroundColor=default;endArrow=none;endFill=0;flowAnimation=1;" edge="1" parent="1" source="XwKYCoxmVv9_oh3NsCj3-5" target="XwKYCoxmVv9_oh3NsCj3-13">
                    <mxGeometry relative="1" as="geometry"/>
                </mxCell>
                <mxCell id="XwKYCoxmVv9_oh3NsCj3-21" style="edgeStyle=none;shape=connector;rounded=1;html=1;exitX=1;exitY=0.5;exitDx=0;exitDy=0;entryX=0;entryY=0.5;entryDx=0;entryDy=0;strokeColor=#4D4D4D;align=center;verticalAlign=middle;fontFamily=Helvetica;fontSize=11;fontColor=#4D4D4D;labelBackgroundColor=default;endArrow=none;endFill=0;flowAnimation=1;" edge="1" parent="1" source="XwKYCoxmVv9_oh3NsCj3-5" target="XwKYCoxmVv9_oh3NsCj3-14">
                    <mxGeometry relative="1" as="geometry"/>
                </mxCell>
                <mxCell id="XwKYCoxmVv9_oh3NsCj3-5" value="Domain" style="rounded=1;whiteSpace=wrap;html=1;fontFamily=Helvetica;fontSize=11;fontColor=#4D4D4D;labelBackgroundColor=default;strokeColor=#4D4D4D;" vertex="1" parent="1">
                    <mxGeometry x="-140" y="230" width="60" height="30" as="geometry"/>
                </mxCell>
                <mxCell id="XwKYCoxmVv9_oh3NsCj3-7" value="" style="rounded=1;whiteSpace=wrap;html=1;fontFamily=Helvetica;fontSize=11;fontColor=#4D4D4D;labelBackgroundColor=default;fillColor=none;strokeColor=#6666FF;arcSize=2;" vertex="1" parent="1">
                    <mxGeometry x="-150" y="320" width="180" height="127.5" as="geometry"/>
                </mxCell>
                <mxCell id="XwKYCoxmVv9_oh3NsCj3-22" style="edgeStyle=none;shape=connector;rounded=1;html=1;exitX=1;exitY=0.5;exitDx=0;exitDy=0;entryX=0;entryY=0.5;entryDx=0;entryDy=0;strokeColor=#4D4D4D;align=center;verticalAlign=middle;fontFamily=Helvetica;fontSize=11;fontColor=#4D4D4D;labelBackgroundColor=default;endArrow=none;endFill=0;flowAnimation=1;" edge="1" parent="1" source="XwKYCoxmVv9_oh3NsCj3-8" target="XwKYCoxmVv9_oh3NsCj3-10">
                    <mxGeometry relative="1" as="geometry"/>
                </mxCell>
                <mxCell id="XwKYCoxmVv9_oh3NsCj3-8" value="Domain" style="rounded=1;whiteSpace=wrap;html=1;fontFamily=Helvetica;fontSize=11;fontColor=#4D4D4D;labelBackgroundColor=default;strokeColor=#4D4D4D;" vertex="1" parent="1">
                    <mxGeometry x="-140" y="330" width="60" height="30" as="geometry"/>
                </mxCell>
                <mxCell id="XwKYCoxmVv9_oh3NsCj3-23" style="edgeStyle=none;shape=connector;rounded=1;html=1;exitX=1;exitY=0.5;exitDx=0;exitDy=0;strokeColor=#4D4D4D;align=center;verticalAlign=middle;fontFamily=Helvetica;fontSize=11;fontColor=#4D4D4D;labelBackgroundColor=default;endArrow=none;endFill=0;flowAnimation=1;entryX=0;entryY=0.5;entryDx=0;entryDy=0;" edge="1" parent="1" source="XwKYCoxmVv9_oh3NsCj3-9" target="XwKYCoxmVv9_oh3NsCj3-10">
                    <mxGeometry relative="1" as="geometry"/>
                </mxCell>
                <mxCell id="XwKYCoxmVv9_oh3NsCj3-9" value="Domain" style="rounded=1;whiteSpace=wrap;html=1;fontFamily=Helvetica;fontSize=11;fontColor=#4D4D4D;labelBackgroundColor=default;strokeColor=#4D4D4D;" vertex="1" parent="1">
                    <mxGeometry x="-140" y="407.5" width="60" height="30" as="geometry"/>
                </mxCell>
                <mxCell id="XwKYCoxmVv9_oh3NsCj3-24" style="edgeStyle=none;shape=connector;rounded=1;html=1;exitX=1;exitY=0.5;exitDx=0;exitDy=0;entryX=0;entryY=0.5;entryDx=0;entryDy=0;strokeColor=#4D4D4D;align=center;verticalAlign=middle;fontFamily=Helvetica;fontSize=11;fontColor=#4D4D4D;labelBackgroundColor=default;endArrow=none;endFill=0;flowAnimation=1;" edge="1" parent="1" source="XwKYCoxmVv9_oh3NsCj3-10" target="XwKYCoxmVv9_oh3NsCj3-14">
                    <mxGeometry relative="1" as="geometry"/>
                </mxCell>
                <mxCell id="XwKYCoxmVv9_oh3NsCj3-25" style="edgeStyle=none;shape=connector;rounded=1;html=1;exitX=1;exitY=0.5;exitDx=0;exitDy=0;entryX=0;entryY=0.5;entryDx=0;entryDy=0;strokeColor=#4D4D4D;align=center;verticalAlign=middle;fontFamily=Helvetica;fontSize=11;fontColor=#4D4D4D;labelBackgroundColor=default;endArrow=none;endFill=0;flowAnimation=1;" edge="1" parent="1" source="XwKYCoxmVv9_oh3NsCj3-10" target="XwKYCoxmVv9_oh3NsCj3-16">
                    <mxGeometry relative="1" as="geometry"/>
                </mxCell>
                <mxCell id="XwKYCoxmVv9_oh3NsCj3-10" value="Domain" style="rounded=1;whiteSpace=wrap;html=1;fontFamily=Helvetica;fontSize=11;fontColor=#4D4D4D;labelBackgroundColor=default;strokeColor=#4D4D4D;" vertex="1" parent="1">
                    <mxGeometry x="-40" y="407.5" width="60" height="30" as="geometry"/>
                </mxCell>
                <mxCell id="XwKYCoxmVv9_oh3NsCj3-11" value="" style="rounded=1;whiteSpace=wrap;html=1;fontFamily=Helvetica;fontSize=11;fontColor=#4D4D4D;labelBackgroundColor=default;fillColor=none;strokeColor=#6666FF;arcSize=2;" vertex="1" parent="1">
                    <mxGeometry x="84" y="140" width="80" height="210" as="geometry"/>
                </mxCell>
                <mxCell id="XwKYCoxmVv9_oh3NsCj3-12" value="Domain" style="rounded=1;whiteSpace=wrap;html=1;fontFamily=Helvetica;fontSize=11;fontColor=#4D4D4D;labelBackgroundColor=default;strokeColor=#4D4D4D;" vertex="1" parent="1">
                    <mxGeometry x="94" y="150" width="60" height="30" as="geometry"/>
                </mxCell>
                <mxCell id="XwKYCoxmVv9_oh3NsCj3-13" value="Domain" style="rounded=1;whiteSpace=wrap;html=1;fontFamily=Helvetica;fontSize=11;fontColor=#4D4D4D;labelBackgroundColor=default;strokeColor=#4D4D4D;" vertex="1" parent="1">
                    <mxGeometry x="94" y="230" width="60" height="30" as="geometry"/>
                </mxCell>
                <mxCell id="XwKYCoxmVv9_oh3NsCj3-26" style="edgeStyle=none;shape=connector;rounded=1;html=1;exitX=0.5;exitY=1;exitDx=0;exitDy=0;entryX=0.5;entryY=0;entryDx=0;entryDy=0;strokeColor=#4D4D4D;align=center;verticalAlign=middle;fontFamily=Helvetica;fontSize=11;fontColor=#4D4D4D;labelBackgroundColor=default;endArrow=none;endFill=0;flowAnimation=1;" edge="1" parent="1" source="XwKYCoxmVv9_oh3NsCj3-14" target="XwKYCoxmVv9_oh3NsCj3-16">
                    <mxGeometry relative="1" as="geometry"/>
                </mxCell>
                <mxCell id="XwKYCoxmVv9_oh3NsCj3-14" value="Domain" style="rounded=1;whiteSpace=wrap;html=1;fontFamily=Helvetica;fontSize=11;fontColor=#4D4D4D;labelBackgroundColor=default;strokeColor=#4D4D4D;" vertex="1" parent="1">
                    <mxGeometry x="94" y="310" width="60" height="30" as="geometry"/>
                </mxCell>
                <mxCell id="XwKYCoxmVv9_oh3NsCj3-15" value="" style="rounded=1;whiteSpace=wrap;html=1;fontFamily=Helvetica;fontSize=11;fontColor=#4D4D4D;labelBackgroundColor=default;fillColor=none;strokeColor=#6666FF;arcSize=2;" vertex="1" parent="1">
                    <mxGeometry x="84" y="400" width="80" height="47.5" as="geometry"/>
                </mxCell>
                <mxCell id="XwKYCoxmVv9_oh3NsCj3-16" value="Domain" style="rounded=1;whiteSpace=wrap;html=1;fontFamily=Helvetica;fontSize=11;fontColor=#4D4D4D;labelBackgroundColor=default;strokeColor=#4D4D4D;" vertex="1" parent="1">
                    <mxGeometry x="94" y="407.5" width="60" height="30" as="geometry"/>
                </mxCell>
            </root>
        </mxGraphModel>
    </diagram>
    <diagram id="3Mch16bEtAkBhxOhh2Zl" name="coarse-grained-and-governed-mesh">
        <mxGraphModel dx="972" dy="548" grid="1" gridSize="10" guides="1" tooltips="1" connect="1" arrows="1" fold="1" page="0" pageScale="1" pageWidth="850" pageHeight="1100" math="0" shadow="0">
            <root>
                <mxCell id="0"/>
                <mxCell id="1" parent="0"/>
                <mxCell id="GzF1M2tOCt8ooiALDDhQ-1" value="" style="rounded=1;whiteSpace=wrap;html=1;fontFamily=Helvetica;fontSize=11;fontColor=#4D4D4D;labelBackgroundColor=default;fillColor=none;strokeColor=#6666FF;arcSize=2;" vertex="1" parent="1">
                    <mxGeometry x="-93" y="153" width="80" height="130" as="geometry"/>
                </mxCell>
                <mxCell id="GzF1M2tOCt8ooiALDDhQ-2" style="edgeStyle=none;shape=connector;rounded=1;html=1;exitX=0.5;exitY=1;exitDx=0;exitDy=0;entryX=0.5;entryY=0;entryDx=0;entryDy=0;strokeColor=#4D4D4D;align=center;verticalAlign=middle;fontFamily=Helvetica;fontSize=11;fontColor=#4D4D4D;labelBackgroundColor=default;endArrow=none;endFill=0;flowAnimation=1;" edge="1" parent="1" source="GzF1M2tOCt8ooiALDDhQ-3" target="GzF1M2tOCt8ooiALDDhQ-4">
                    <mxGeometry relative="1" as="geometry"/>
                </mxCell>
                <mxCell id="GzF1M2tOCt8ooiALDDhQ-3" value="Domain" style="rounded=1;whiteSpace=wrap;html=1;fontFamily=Helvetica;fontSize=11;fontColor=#4D4D4D;labelBackgroundColor=default;strokeColor=#4D4D4D;" vertex="1" parent="1">
                    <mxGeometry x="-83" y="163" width="60" height="30" as="geometry"/>
                </mxCell>
                <mxCell id="GzF1M2tOCt8ooiALDDhQ-4" value="Domain" style="rounded=1;whiteSpace=wrap;html=1;fontFamily=Helvetica;fontSize=11;fontColor=#4D4D4D;labelBackgroundColor=default;strokeColor=#4D4D4D;" vertex="1" parent="1">
                    <mxGeometry x="-83" y="243" width="60" height="30" as="geometry"/>
                </mxCell>
                <mxCell id="GzF1M2tOCt8ooiALDDhQ-5" value="" style="rounded=1;whiteSpace=wrap;html=1;fontFamily=Helvetica;fontSize=11;fontColor=#4D4D4D;labelBackgroundColor=default;fillColor=none;strokeColor=#6666FF;arcSize=2;" vertex="1" parent="1">
                    <mxGeometry x="-93" y="307.5" width="80" height="130" as="geometry"/>
                </mxCell>
                <mxCell id="GzF1M2tOCt8ooiALDDhQ-6" style="edgeStyle=none;shape=connector;rounded=1;html=1;exitX=0.5;exitY=1;exitDx=0;exitDy=0;entryX=0.5;entryY=0;entryDx=0;entryDy=0;strokeColor=#4D4D4D;align=center;verticalAlign=middle;fontFamily=Helvetica;fontSize=11;fontColor=#4D4D4D;labelBackgroundColor=default;endArrow=none;endFill=0;flowAnimation=1;" edge="1" source="GzF1M2tOCt8ooiALDDhQ-7" target="GzF1M2tOCt8ooiALDDhQ-8" parent="1">
                    <mxGeometry relative="1" as="geometry"/>
                </mxCell>
                <mxCell id="GzF1M2tOCt8ooiALDDhQ-7" value="Domain" style="rounded=1;whiteSpace=wrap;html=1;fontFamily=Helvetica;fontSize=11;fontColor=#4D4D4D;labelBackgroundColor=default;strokeColor=#4D4D4D;" vertex="1" parent="1">
                    <mxGeometry x="-83" y="317.5" width="60" height="30" as="geometry"/>
                </mxCell>
                <mxCell id="GzF1M2tOCt8ooiALDDhQ-8" value="Domain" style="rounded=1;whiteSpace=wrap;html=1;fontFamily=Helvetica;fontSize=11;fontColor=#4D4D4D;labelBackgroundColor=default;strokeColor=#4D4D4D;" vertex="1" parent="1">
                    <mxGeometry x="-83" y="397.5" width="60" height="30" as="geometry"/>
                </mxCell>
                <mxCell id="kY0EqnZYfZ54TK4y-kPZ-13" style="edgeStyle=none;shape=connector;rounded=1;html=1;exitX=1;exitY=0.88;exitDx=0;exitDy=0;exitPerimeter=0;entryX=0;entryY=0.5;entryDx=0;entryDy=0;strokeColor=#4D4D4D;align=center;verticalAlign=middle;fontFamily=Helvetica;fontSize=11;fontColor=#4D4D4D;labelBackgroundColor=default;endArrow=none;endFill=0;flowAnimation=1;" edge="1" parent="1" source="i4g73l6T8N5qpt35hHHb-1" target="kY0EqnZYfZ54TK4y-kPZ-7">
                    <mxGeometry relative="1" as="geometry"/>
                </mxCell>
                <mxCell id="kY0EqnZYfZ54TK4y-kPZ-14" style="edgeStyle=none;shape=connector;rounded=1;html=1;exitX=1;exitY=0.38;exitDx=0;exitDy=0;exitPerimeter=0;entryX=0;entryY=0.5;entryDx=0;entryDy=0;strokeColor=#4D4D4D;align=center;verticalAlign=middle;fontFamily=Helvetica;fontSize=11;fontColor=#4D4D4D;labelBackgroundColor=default;endArrow=none;endFill=0;flowAnimation=1;" edge="1" parent="1" source="i4g73l6T8N5qpt35hHHb-1" target="kY0EqnZYfZ54TK4y-kPZ-3">
                    <mxGeometry relative="1" as="geometry"/>
                </mxCell>
                <mxCell id="i4g73l6T8N5qpt35hHHb-1" value="Distribution Domain" style="rounded=1;whiteSpace=wrap;html=1;fontFamily=Helvetica;fontSize=11;fontColor=#4D4D4D;labelBackgroundColor=default;points=[[0,0.13,0,0,0],[0,0.25,0,0,0],[0,0.38,0,0,0],[0,0.5,0,0,0],[0,0.63,0,0,0],[0,0.75,0,0,0],[0,0.88,0,0,0],[0.13,0,0,0,0],[0.13,1,0,0,0],[0.25,0,0,0,0],[0.25,1,0,0,0],[0.38,0,0,0,0],[0.38,1,0,0,0],[0.5,0,0,0,0],[0.5,1,0,0,0],[0.63,0,0,0,0],[0.63,1,0,0,0],[0.75,0,0,0,0],[0.75,1,0,0,0],[0.88,0,0,0,0],[0.88,1,0,0,0],[1,0.13,0,0,0],[1,0.25,0,0,0],[1,0.38,0,0,0],[1,0.5,0,0,0],[1,0.63,0,0,0],[1,0.75,0,0,0],[1,0.88,0,0,0]];strokeColor=#4D4D4D;" vertex="1" parent="1">
                    <mxGeometry x="40" y="140" width="70" height="310" as="geometry"/>
                </mxCell>
                <mxCell id="kY0EqnZYfZ54TK4y-kPZ-1" value="" style="rounded=1;whiteSpace=wrap;html=1;fontFamily=Helvetica;fontSize=11;fontColor=#4D4D4D;labelBackgroundColor=default;fillColor=none;strokeColor=#6666FF;arcSize=2;" vertex="1" parent="1">
                    <mxGeometry x="166" y="153" width="80" height="210" as="geometry"/>
                </mxCell>
                <mxCell id="kY0EqnZYfZ54TK4y-kPZ-11" style="edgeStyle=none;shape=connector;rounded=1;html=1;exitX=0.5;exitY=1;exitDx=0;exitDy=0;entryX=0.5;entryY=0;entryDx=0;entryDy=0;strokeColor=#4D4D4D;align=center;verticalAlign=middle;fontFamily=Helvetica;fontSize=11;fontColor=#4D4D4D;labelBackgroundColor=default;endArrow=none;endFill=0;flowAnimation=1;" edge="1" parent="1" source="kY0EqnZYfZ54TK4y-kPZ-2" target="kY0EqnZYfZ54TK4y-kPZ-3">
                    <mxGeometry relative="1" as="geometry"/>
                </mxCell>
                <mxCell id="kY0EqnZYfZ54TK4y-kPZ-2" value="Domain" style="rounded=1;whiteSpace=wrap;html=1;fontFamily=Helvetica;fontSize=11;fontColor=#4D4D4D;labelBackgroundColor=default;strokeColor=#4D4D4D;" vertex="1" parent="1">
                    <mxGeometry x="176" y="163" width="60" height="30" as="geometry"/>
                </mxCell>
                <mxCell id="kY0EqnZYfZ54TK4y-kPZ-12" style="edgeStyle=none;shape=connector;rounded=1;html=1;exitX=0.5;exitY=1;exitDx=0;exitDy=0;entryX=0.5;entryY=0;entryDx=0;entryDy=0;strokeColor=#4D4D4D;align=center;verticalAlign=middle;fontFamily=Helvetica;fontSize=11;fontColor=#4D4D4D;labelBackgroundColor=default;endArrow=none;endFill=0;flowAnimation=1;" edge="1" parent="1" source="kY0EqnZYfZ54TK4y-kPZ-3" target="kY0EqnZYfZ54TK4y-kPZ-5">
                    <mxGeometry relative="1" as="geometry"/>
                </mxCell>
                <mxCell id="kY0EqnZYfZ54TK4y-kPZ-3" value="Domain" style="rounded=1;whiteSpace=wrap;html=1;fontFamily=Helvetica;fontSize=11;fontColor=#4D4D4D;labelBackgroundColor=default;strokeColor=#4D4D4D;" vertex="1" parent="1">
                    <mxGeometry x="176" y="243" width="60" height="30" as="geometry"/>
                </mxCell>
                <mxCell id="kY0EqnZYfZ54TK4y-kPZ-5" value="Domain" style="rounded=1;whiteSpace=wrap;html=1;fontFamily=Helvetica;fontSize=11;fontColor=#4D4D4D;labelBackgroundColor=default;strokeColor=#4D4D4D;" vertex="1" parent="1">
                    <mxGeometry x="176" y="323" width="60" height="30" as="geometry"/>
                </mxCell>
                <mxCell id="kY0EqnZYfZ54TK4y-kPZ-6" value="" style="rounded=1;whiteSpace=wrap;html=1;fontFamily=Helvetica;fontSize=11;fontColor=#4D4D4D;labelBackgroundColor=default;fillColor=none;strokeColor=#6666FF;arcSize=2;" vertex="1" parent="1">
                    <mxGeometry x="166" y="390" width="80" height="47.5" as="geometry"/>
                </mxCell>
                <mxCell id="kY0EqnZYfZ54TK4y-kPZ-7" value="Domain" style="rounded=1;whiteSpace=wrap;html=1;fontFamily=Helvetica;fontSize=11;fontColor=#4D4D4D;labelBackgroundColor=default;strokeColor=#4D4D4D;" vertex="1" parent="1">
                    <mxGeometry x="176" y="397.5" width="60" height="30" as="geometry"/>
                </mxCell>
                <mxCell id="kY0EqnZYfZ54TK4y-kPZ-9" style="edgeStyle=none;shape=connector;rounded=1;html=1;exitX=1;exitY=0.5;exitDx=0;exitDy=0;entryX=0;entryY=0.38;entryDx=0;entryDy=0;entryPerimeter=0;strokeColor=#4D4D4D;align=center;verticalAlign=middle;fontFamily=Helvetica;fontSize=11;fontColor=#4D4D4D;labelBackgroundColor=default;endArrow=none;endFill=0;flowAnimation=1;" edge="1" parent="1" source="GzF1M2tOCt8ooiALDDhQ-4" target="i4g73l6T8N5qpt35hHHb-1">
                    <mxGeometry relative="1" as="geometry"/>
                </mxCell>
                <mxCell id="kY0EqnZYfZ54TK4y-kPZ-10" style="edgeStyle=none;shape=connector;rounded=1;html=1;exitX=1;exitY=0.5;exitDx=0;exitDy=0;entryX=0;entryY=0.88;entryDx=0;entryDy=0;entryPerimeter=0;strokeColor=#4D4D4D;align=center;verticalAlign=middle;fontFamily=Helvetica;fontSize=11;fontColor=#4D4D4D;labelBackgroundColor=default;endArrow=none;endFill=0;flowAnimation=1;" edge="1" parent="1" source="GzF1M2tOCt8ooiALDDhQ-8" target="i4g73l6T8N5qpt35hHHb-1">
                    <mxGeometry relative="1" as="geometry"/>
                </mxCell>
            </root>
        </mxGraphModel>
    </diagram>
</mxfile>
